<?xml version="1.0" standalone="no"?><!DOCTYPE svg PUBLIC "-//W3C//DTD SVG 1.1//EN" "http://www.w3.org/Graphics/SVG/1.1/DTD/svg11.dtd"><svg t="1492163166970" class="icon" style="" viewBox="0 0 1024 1024" version="1.1" xmlns="http://www.w3.org/2000/svg" p-id="6578" xmlns:xlink="http://www.w3.org/1999/xlink" width="48" height="48"><defs><style type="text/css"></style></defs><path d="M916.764373 261.966387c-13.134673 0-23.810241 10.650571-23.810241 23.813359l0 642.946354c0 26.278503-21.329645 47.626717-47.629692 47.626717L178.539454 976.352817c-26.303117 0-47.627645-21.348214-47.627645-47.626717L130.911809 285.779745c0-13.160741-10.674544-23.813359-23.814334-23.813359-11.072627 0-20.398398 7.567349-23.053987 17.827017-0.25072-0.13917-0.511674-0.264013-0.759324-0.408299l0 649.339971c0 52.599985 42.627566 95.251388 95.256314 95.251388l666.784986 0c52.604187 0 95.256314-42.651402 95.256314-95.251388L940.581777 285.779745C940.581777 272.616958 929.90621 261.966387 916.764373 261.966387zM345.237748 833.472666 345.237748 309.592081c0-13.162788-10.677614-23.813359-23.814334-23.813359-13.140813 0-23.814334 10.649548-23.814334 23.813359l0 523.879562c0 13.141298 10.674544 23.814382 23.814334 23.814382C334.560133 857.288071 345.237748 846.61294 345.237748 833.472666zM726.255839 833.472666 726.255839 309.592081c0-13.162788-10.671474-23.813359-23.812288-23.813359-13.141837 0-23.815358 10.649548-23.815358 23.813359l0 523.879562c0 13.141298 10.675568 23.814382 23.815358 23.814382C715.583341 857.287047 726.255839 846.61294 726.255839 833.472666zM988.346551 95.274924 714.090276 95.274924 626.231746 7.421017c-5.030779-5.031597-11.661052-7.481392-18.258577-7.375991-0.261977-0.008186-0.521908-0.021489-0.786955-0.021489L416.67768 0.023536c-0.234347 0-0.463577 0.01228-0.695877 0.01842-6.582175-0.091074-13.193004 2.358721-18.211503 7.378038l-87.85853 87.85493L35.656519 95.274924c-13.13979 0-23.814334 10.652618-23.814334 23.813359 0 13.139252 10.675568 23.813359 23.814334 23.813359l285.765871 0c0.400129 0 0.796165-0.010233 1.193224-0.028653 6.677347 0.168846 13.409954-2.27174 18.505204-7.363711l87.85853-87.856977 166.04335 0 87.859553 87.856977c5.094227 5.094018 11.825811 7.53358 18.504181 7.363711 0.396036 0.019443 0.792071 0.028653 1.193224 0.028653l285.765871 0c13.138767 0 23.813311-10.67513 23.813311-23.813359C1012.159862 105.928564 1001.485318 95.274924 988.346551 95.274924zM535.749352 833.472666 535.749352 309.592081c0-13.162788-10.678638-23.813359-23.818428-23.813359-13.13672 0-23.812288 10.649548-23.812288 23.813359l0 523.879562c0 13.141298 10.675568 23.814382 23.812288 23.814382C525.070714 857.288071 535.749352 846.61294 535.749352 833.472666z" p-id="6579"></path></svg>