<?xml version="1.0" standalone="no"?><!DOCTYPE svg PUBLIC "-//W3C//DTD SVG 1.1//EN" "http://www.w3.org/Graphics/SVG/1.1/DTD/svg11.dtd"><svg t="1493091527661" class="icon" style="" viewBox="0 0 1024 1024" version="1.1" xmlns="http://www.w3.org/2000/svg" p-id="38157" xmlns:xlink="http://www.w3.org/1999/xlink" width="48" height="48"><defs><style type="text/css"></style></defs><path d="M800 480l-256 0 0-256C544 204.8 531.2 192 512 192S480 204.8 480 224l0 256-256 0C204.8 480 192 492.8 192 512s12.8 32 32 32l256 0 0 256C480 819.2 492.8 832 512 832s32-12.8 32-32l0-256 256 0C819.2 544 832 531.2 832 512S819.2 480 800 480zM806.4 486.4 537.6 486.4 537.6 217.6C537.6 204.8 524.8 192 512 192S486.4 204.8 486.4 217.6l0 268.8L217.6 486.4C204.8 486.4 192 499.2 192 512s12.8 25.6 25.6 25.6l268.8 0 0 268.8C486.4 819.2 499.2 832 512 832s25.6-12.8 25.6-25.6L537.6 537.6l268.8 0C819.2 537.6 832 524.8 832 512S819.2 486.4 806.4 486.4z" p-id="38158"></path></svg>