<?xml version="1.0" standalone="no"?><!DOCTYPE svg PUBLIC "-//W3C//DTD SVG 1.1//EN" "http://www.w3.org/Graphics/SVG/1.1/DTD/svg11.dtd"><svg t="1492160126802" class="icon" style="" viewBox="0 0 1024 1024" version="1.1" xmlns="http://www.w3.org/2000/svg" p-id="5912" xmlns:xlink="http://www.w3.org/1999/xlink" width="48" height="48"><defs><style type="text/css"></style></defs><path d="M874.01472 149.93408C777.30816 53.248 648.74496 0 512 0 375.23456 0 246.66112 53.248 149.9648 149.93408 53.26848 246.6304 0 375.21408 0 512c0 136.7552 53.26848 265.3184 149.9648 362.02496C246.66112 970.71104 375.23456 1024 512 1024c136.74496 0 265.3184-53.28896 362.0352-149.97504C970.73152 777.3184 1024 648.74496 1024 512s-53.26848-265.3696-149.98528-362.06592z m-80.896 212.1216L444.45696 710.7584c-0.22528 0.22528-0.45056 0.37888-0.6656 0.59392a34.4064 34.4064 0 0 1-23.77728 9.5232c-3.2768 0-6.56384-0.43008-9.75872-1.36192-0.02048-0.04096-0.06144-0.04096-0.08192-0.04096a34.54976 34.54976 0 0 1-14.60224-8.71424h-0.02048L230.53312 545.75104a34.56 34.56 0 1 1 48.87552-48.87552l140.5952 140.5952L744.2432 313.1904a34.56 34.56 0 1 1 48.87552 48.86528z" p-id="5913"></path></svg>