<?xml version="1.0" standalone="no"?><!DOCTYPE svg PUBLIC "-//W3C//DTD SVG 1.1//EN" "http://www.w3.org/Graphics/SVG/1.1/DTD/svg11.dtd"><svg t="1490028320342" class="icon" style="" viewBox="0 0 1024 1024" version="1.1" xmlns="http://www.w3.org/2000/svg" p-id="6377" xmlns:xlink="http://www.w3.org/1999/xlink" width="64" height="64"><defs><style type="text/css"></style></defs><path d="M730.404155 305.642345c0 10.352708-8.405639 18.758348-18.758347 18.758348H340.784566a18.774178 18.774178 0 0 1 0-37.516696h370.861242c10.352708 0 18.758348 8.38981 18.758347 18.758348zM694.628741 526.990848L539.955479 372.317586a18.726688 18.726688 0 0 0-13.518675-5.492951h-0.474895a18.663369 18.663369 0 0 0-13.518674 5.492951l-154.657432 154.673262a18.742518 18.742518 0 1 0 26.514964 26.514965l123.140242-123.140243v298.582241a18.774178 18.774178 0 0 0 37.516696 0V430.36557l123.140242 123.140243a18.742518 18.742518 0 0 0 26.514964 0 18.726688 18.726688 0 0 0 0.01583-26.514965z" p-id="6378"></path><path d="M512.01583 1024C229.690824 1024 0 794.325006 0 512S229.690824 0 512.01583 0c282.309176 0 511.98417 229.690824 511.98417 512S794.325006 1024 512.01583 1024z m0-997.07346c-267.476626 0-485.08929 217.596834-485.08929 485.07346 0 267.460796 217.612664 485.07346 485.08929 485.07346 267.460796 0 485.05763-217.596834 485.05763-485.07346S779.476626 26.92654 512.01583 26.92654z" p-id="6379"></path></svg>