<?xml version="1.0" standalone="no"?><!DOCTYPE svg PUBLIC "-//W3C//DTD SVG 1.1//EN" "http://www.w3.org/Graphics/SVG/1.1/DTD/svg11.dtd"><svg t="1492159239907" class="icon" style="" viewBox="0 0 1024 1024" version="1.1" xmlns="http://www.w3.org/2000/svg" p-id="4976" xmlns:xlink="http://www.w3.org/1999/xlink" width="48" height="48"><defs><style type="text/css"></style></defs><path d="M510.863107 941.447842c-236.115626 0-428.214758-192.098109-428.214758-428.214758 0-236.117672 192.098109-428.215782 428.214758-428.215782 236.117672 0 428.215782 192.098109 428.215782 428.215782C939.078889 749.349733 746.980779 941.447842 510.863107 941.447842L510.863107 941.447842zM510.863107 130.09701c-211.267704 0-383.136074 171.867346-383.136074 383.136074 0 211.267704 171.868369 383.140167 383.136074 383.140167 211.268728 0 383.142214-171.872462 383.142214-383.140167C894.004297 301.964356 722.131835 130.09701 510.863107 130.09701L510.863107 130.09701zM510.863107 130.09701" p-id="4977"></path></svg>