<?xml version="1.0" standalone="no"?><!DOCTYPE svg PUBLIC "-//W3C//DTD SVG 1.1//EN" "http://www.w3.org/Graphics/SVG/1.1/DTD/svg11.dtd"><svg t="1521083853254" class="icon" style="" viewBox="0 0 1024 1024" version="1.1" xmlns="http://www.w3.org/2000/svg" p-id="3963" xmlns:xlink="http://www.w3.org/1999/xlink" width="64" height="64"><defs><style type="text/css"></style></defs><path d="M277.9 742s167.9-294.1 465.3-465.3C575.7 577.8 277.9 742 277.9 742z" fill="#FFFFFF" p-id="3964"></path><path d="M743.1 742S575.2 447.9 277.8 276.7C445.3 577.8 743.1 742 743.1 742z" fill="#FFFFFF" p-id="3965"></path><path d="M512 512m-448 0a448 448 0 1 0 896 0 448 448 0 1 0-896 0Z" fill="#ED153F" p-id="3966"></path><path d="M512 736.1m-63 0a63 63 0 1 0 126 0 63 63 0 1 0-126 0Z" fill="#FFFFFF" p-id="3967"></path><path d="M512 611.8s63-220.5 63-306.3S549.5 204 512 204s-63 15.8-63 101.5 63 306.3 63 306.3z" fill="#FFFFFF" p-id="3968"></path></svg>