<?xml version="1.0" standalone="no"?><!DOCTYPE svg PUBLIC "-//W3C//DTD SVG 1.1//EN" "http://www.w3.org/Graphics/SVG/1.1/DTD/svg11.dtd"><svg t="1489722091167" class="icon" style="" viewBox="0 0 1026 1024" version="1.1" xmlns="http://www.w3.org/2000/svg" p-id="1045" xmlns:xlink="http://www.w3.org/1999/xlink" width="200.390625" height="200"><defs><style type="text/css"></style></defs><path d="M515.84 512.08192m-510.72 0a510.72 510.72 0 1 0 1021.44 0 510.72 510.72 0 1 0-1021.44 0Z" fill="#EC4619" p-id="1046"></path><path d="M515.84 730.05568c-10.5472 0-20.97664-0.54784-31.23712-1.47968-28.04224 51.74272-87.79264 71.43424-187.77088 54.9632 39.3728-18.40128 66.16064-41.6 81.23904-82.8416-91.68384-41.728-154.07104-123.81696-154.07104-218.28096 0-136.73472 130.65728-247.59296 291.84-247.59296 161.17248 0 291.84 110.85824 291.84 247.59296 0 136.76544-130.66752 247.63904-291.84 247.63904z" fill="#ffffff" p-id="1047"></path><path d="M390.98368 453.71392c19.70688 0 35.68128 16.3328 35.68128 36.48512s-15.9744 36.48-35.68128 36.48c-19.69664 0-35.65568-16.32768-35.65568-36.48s15.95904-36.48512 35.65568-36.48512z" fill="#EC4619" p-id="1048"></path><path d="M515.84 490.1888m-35.57376 0a35.57376 35.57376 0 1 0 71.14752 0 35.57376 35.57376 0 1 0-71.14752 0Z" fill="#EC4619" p-id="1049"></path><path d="M640.77824 454.61504a35.56352 35.56352 0 0 1 35.57888 35.584 35.55328 35.55328 0 0 1-35.57888 35.56352 35.5584 35.5584 0 0 1-35.5584-35.56352 35.56864 35.56864 0 0 1 35.5584-35.584z" p-id="1050"></path></svg>