<?xml version="1.0" standalone="no"?><!DOCTYPE svg PUBLIC "-//W3C//DTD SVG 1.1//EN" "http://www.w3.org/Graphics/SVG/1.1/DTD/svg11.dtd"><svg t="1492579960221" class="icon" style="" viewBox="0 0 1024 1024" version="1.1" xmlns="http://www.w3.org/2000/svg" p-id="3029" xmlns:xlink="http://www.w3.org/1999/xlink" width="48" height="48"><defs><style type="text/css"></style></defs><path d="M511.999488 10.177803c-277.149181 0-501.82322 224.674039-501.82322 501.82322S234.850307 1013.82322 511.999488 1013.82322s501.82322-224.674039 501.82322-501.82322S789.148669 10.177803 511.999488 10.177803zM512.004605 961.610044c-248.317529 0-449.615161-201.293539-449.615161-449.605951 0-248.316505 201.298656-449.615161 449.615161-449.615161 248.311389 0 449.604928 201.298656 449.604928 449.615161C961.609533 760.316505 760.315994 961.610044 512.004605 961.610044z" p-id="3030"></path><path d="M513.022795 222.793202c-90.390683 0-163.66657 73.275887-163.66657 163.66657 0 90.390683 73.275887 163.66657 163.66657 163.66657 90.38966 0 163.665547-73.27691 163.665547-163.66657C676.688341 296.069089 603.412454 222.793202 513.022795 222.793202zM513.022795 509.209444c-67.793012 0-122.749672-54.956659-122.749672-122.748648 0-67.793012 54.956659-122.749672 122.749672-122.749672 67.793012 0 122.749672 54.956659 122.749672 122.749672C635.772466 454.252785 580.815807 509.209444 513.022795 509.209444z" p-id="3031"></path><path d="M281.221428 774.119883c5.479805-123.292024 107.156532-221.570351 231.801367-221.570351 124.643811 0 226.321562 98.278327 231.800343 221.570351l40.977273 0c-5.509481-145.914254-125.516692-262.521019-272.777617-262.521019-147.262972 0-267.26916 116.606765-272.776593 262.521019L281.221428 774.119883z" p-id="3032"></path><path d="M260.704139 771.554454m-20.457938 0a19.992 19.992 0 1 0 40.915875 0 19.992 19.992 0 1 0-40.915875 0Z" p-id="3033"></path><path d="M765.340427 771.554454m-20.457938 0a19.992 19.992 0 1 0 40.915875 0 19.992 19.992 0 1 0-40.915875 0Z" p-id="3034"></path></svg>