<?xml version="1.0" standalone="no"?><!DOCTYPE svg PUBLIC "-//W3C//DTD SVG 1.1//EN" "http://www.w3.org/Graphics/SVG/1.1/DTD/svg11.dtd"><svg t="1492579921123" class="icon" style="" viewBox="0 0 1024 1024" version="1.1" xmlns="http://www.w3.org/2000/svg" p-id="2905" xmlns:xlink="http://www.w3.org/1999/xlink" width="48" height="48"><defs><style type="text/css"></style></defs><path d="M511.995119 1023.948841c-282.75337 0-511.984652-229.221051-511.984652-511.984652 0-282.75337 229.231283-511.974421 511.984652-511.974421 282.763601 0 511.974421 229.221051 511.974421 511.974421 0 282.763601-229.210819 511.984652-511.974421 511.984652z m103.084502-506.439064c49.746585-33.263297 82.631309-89.865129 82.631309-154.089587 0-102.143184-83.112199-185.265615-185.286079-185.265615-102.132952 0-185.245151 83.122431-185.245151 185.265615 0 64.070983 32.700553 120.590961 82.252735 153.884953-127.169952 42.789021-219.122351 162.88886-219.122351 304.301356a24.146841 24.146841 0 0 0 24.167305 24.157073 24.146841 24.146841 0 0 0 24.157073-24.157073c0-150.467561 122.43267-272.889999 272.889999-272.889999 0.102317 0 0.194403-0.06139 0.296719-0.061391 0.204634 0 0.399037 0.06139 0.603671 0.061391 150.498256 0 272.930926 122.422438 272.930926 272.889999a24.146841 24.146841 0 0 0 24.157073 24.157073 24.146841 24.146841 0 0 0 24.167305-24.157073c0-141.207862-91.717069-261.154225-218.600534-304.096722z m-102.65477-17.117655c-75.520269 0-136.920774-61.451664-136.920774-136.971932 0-75.510037 61.400506-136.931006 136.920774-136.931006 75.510037 0 136.961701 61.420969 136.961701 136.931006 0 75.520269-61.451664 136.971933-136.961701 136.971932z" p-id="2906"></path></svg>