<?xml version="1.0" standalone="no"?><!DOCTYPE svg PUBLIC "-//W3C//DTD SVG 1.1//EN" "http://www.w3.org/Graphics/SVG/1.1/DTD/svg11.dtd"><svg t="1493127862630" class="icon" style="" viewBox="0 0 1025 1024" version="1.1" xmlns="http://www.w3.org/2000/svg" p-id="2682" xmlns:xlink="http://www.w3.org/1999/xlink" width="48.046875" height="48"><defs><style type="text/css"></style></defs><path d="M717.931 467.906l0-22.89L526.12 445.016l0 45.851 168.922 0C708.394 490.867 716.094 483.237 717.931 467.906z" p-id="2683"></path><path d="M294.111 381.998l0 17.167 180.437 0 0-37.232L317.001 361.933C301.67 361.933 294.111 368.715 294.111 381.998z" p-id="2684"></path><path d="M706.486 536.718 526.12 536.718l0 42.954 180.365-5.724C695.042 562.434 695.042 550.069 706.486 536.718z" p-id="2685"></path><path d="M294.111 467.906c0 15.331 7.559 22.96 22.89 22.96l157.547 0 0-45.851L294.111 445.015 294.111 467.906z" p-id="2686"></path><path d="M717.931 381.998c-1.837-11.445-10.455-18.086-25.716-20.064L526.12 361.934l0 37.232 191.811 0L717.931 381.998z" p-id="2687"></path><path d="M896.5 0l-768 0c-70.72 0-128 57.344-128 128l0 768c0 70.656 57.28 128 128 128l768 0c70.656 0 128-57.344 128-128L1024.5 128C1024.5 57.344 967.156 0 896.5 0zM208.133 224.451l266.415 0 0-28.613c17.167-24.797 34.334-24.797 51.573 0l0 28.613 280.616 0c11.516 1.908 18.157 10.527 20.064 25.787-1.907 15.26-8.549 22.891-20.064 22.891L526.12 273.129l0 42.954 200.431 0c28.612 0 42.953 13.353 42.953 40.128l0 143.205c-1.907 22.889-10.525 34.334-25.786 34.334 51.503 57.296 80.257 88.805 85.979 94.527 9.538 17.168 9.538 31.438 0 42.884-15.331 11.445-28.683 10.527-40.128-2.826-7.631-5.722-15.261-13.282-22.891-22.89-9.608-9.538-17.167-18.156-22.891-25.787L225.371 642.69c-17.238 1.907-26.777-5.724-28.684-22.962 0-15.259 8.619-24.798 25.787-28.612l252.073-8.619 0-45.779L285.491 536.718c-28.683 0-42.035-14.342-40.128-42.954L245.363 359.107c-1.907-28.612 11.445-43.024 40.128-43.024l189.056 0 0-42.884L208.133 273.199c-17.168 0-25.787-7.63-25.787-22.89C182.345 235.048 190.964 226.359 208.133 224.451zM586.242 774.379c-17.167 3.885-29.672-1.837-37.231-17.167-5.723-15.261-15.26-36.314-28.612-63.09-7.63-15.261-4.733-27.624 8.619-37.161 15.26-5.722 28.542-1.837 40.058 11.445 13.282 21.123 23.809 42.105 31.438 63.019C604.328 750.57 599.525 764.912 586.242 774.379zM317.001 719.979c-21.052 40.058-47.758 78.278-80.186 114.591-19.146 15.261-36.313 16.179-51.573 2.827-11.445-13.353-8.619-28.612 8.619-45.78 26.706-26.705 50.584-60.192 71.567-100.251 9.539-19.075 23.879-24.797 42.955-17.167C321.734 683.808 324.631 698.997 317.001 719.979zM715.176 768.655c-5.794 53.481-40.128 79.269-103.218 77.36L468.824 846.015c-61.11 0-91.631-26.775-91.631-80.257l0-83.082c19.075-28.612 38.151-28.612 57.296 0l0 71.639c-1.908 26.775 20.982 40.127 68.741 40.127l88.805 0c38.151 0 59.134-10.526 63.019-31.509 3.815-19.075 14.342-27.694 31.51-25.787C707.547 741.033 717.084 751.488 715.176 768.655zM832.524 823.127c-15.331 9.537-27.695 7.559-37.232-5.724-5.722-7.63-11.445-15.33-17.167-22.891-36.314-43.942-61.111-75.381-74.464-94.527-11.445-13.353-11.445-26.775 0-40.128 13.282-9.537 27.694-8.549 42.954 2.896 24.798 30.591 56.307 70.648 94.528 120.314C850.68 798.329 847.782 811.682 832.524 823.127z" p-id="2688"></path></svg>