<?xml version="1.0" encoding="utf-8"?>
<!-- Generator: Adobe Illustrator 19.0.0, SVG Export Plug-In . SVG Version: 6.00 Build 0)  -->
<svg version="1.1" id="图层_1" xmlns="http://www.w3.org/2000/svg" xmlns:xlink="http://www.w3.org/1999/xlink" x="0px" y="0px"
	 viewBox="0 0 200 200" style="enable-background:new 0 0 200 200;" xml:space="preserve">
<g id="XMLID_1_">
	<path id="XMLID_3_" d="M139.5,68L107,116.1v11h22.5v4.8H107v18.9c0,6.2,1.3,7.2,19.3,8.6v4.5H76.3v-4.5c17.3-1.1,19.8-2.4,19.8-8.6
		V132H70.6v-4.8h25.6v-2.9c0-4.3-1.3-9.6-3.2-12.2L63.4,70.9c-5.1-7-9.6-10.2-19.3-10.2v-4.5h41.9v4.5c-15.5,0-17,1.6-12.6,7.7
		l30.9,43l30.7-45.6c2.4-3.5,2.1-5-12.2-5v-4.6h33.1v4.6C144.5,60.8,143.2,62.4,139.5,68z"/>
</g>
<path id="XMLID_9_" d="M176.2,50.7c-0.1,0-0.3,0.1-0.4,0.1c6.6,9.6,11.5,20.6,14.1,32.6c10.8,49.6-20.8,98.7-70.4,109.4
	C69.9,203.5,20.8,172,10.1,122.4C-0.7,72.8,30.9,23.7,80.5,13c24-5.2,47.9-0.5,67.4,11.4c0.6-1.1,1.4-2.3,2.2-3.3
	c-20.4-12.5-45.4-17.5-70.5-12C27.9,20.3-5,71.5,6.2,123.2s62.4,84.7,114.2,73.5c51.7-11.2,84.7-62.4,73.5-114.2
	c-2.6-12.1-7.4-23.2-13.9-32.9C178.7,50,177.5,50.4,176.2,50.7z"/>
</svg>
