<?xml version="1.0" standalone="no"?><!DOCTYPE svg PUBLIC "-//W3C//DTD SVG 1.1//EN" "http://www.w3.org/Graphics/SVG/1.1/DTD/svg11.dtd"><svg t="1496205132601" class="icon" style="" viewBox="0 0 1026 1024" version="1.1" xmlns="http://www.w3.org/2000/svg" p-id="2949" xmlns:xlink="http://www.w3.org/1999/xlink" width="48.09375" height="48"><defs><style type="text/css"></style></defs><path d="M911.259286 32.745798 113.907283 32.745798C51.317783 32.745798 0.525979 83.214237 0.01228 145.664567l1025.14201 0C1024.64059 83.214237 973.848787 32.745798 911.259286 32.745798z" p-id="2950"></path><path d="M0 202.617697l0 627.513874c0 62.890352 50.998511 113.873514 113.907283 113.873514l797.352003 0c62.909795 0 113.907283-50.983161 113.907283-113.873514L1025.166569 202.617697 0 202.617697zM341.16517 600.86084 227.257887 600.86084 227.257887 430.462962l113.907283 0L341.16517 600.86084zM568.68093 600.86084 454.773647 600.86084 454.773647 430.462962l113.907283 0L568.68093 600.86084zM797.908682 600.86084 684.001399 600.86084 684.001399 430.462962l113.907283 0L797.908682 600.86084z" p-id="2951"></path></svg>