<?xml version="1.0" standalone="no"?><!DOCTYPE svg PUBLIC "-//W3C//DTD SVG 1.1//EN" "http://www.w3.org/Graphics/SVG/1.1/DTD/svg11.dtd"><svg t="1496205439561" class="icon" style="" viewBox="0 0 1027 1024" version="1.1" xmlns="http://www.w3.org/2000/svg" p-id="6079" xmlns:xlink="http://www.w3.org/1999/xlink" width="48.140625" height="48"><defs><style type="text/css"></style></defs><path d="M1024 251.733333c0-46.933333-38.4-87.466667-87.466667-87.466667L87.466667 164.266667C38.4 164.266667 0 202.666667 0 251.733333l0 44.8 1024 0L1024 251.733333z" p-id="6080"></path><path d="M0 401.066667l0 416c0 46.933333 38.4 87.466667 87.466667 87.466667l851.2 0c46.933333 0 87.466667-38.4 87.466667-87.466667L1026.133333 401.066667 0 401.066667zM405.333333 691.2c0 14.933333-12.8 27.733333-27.733333 27.733333L91.733333 718.933333c-14.933333 0-27.733333-12.8-27.733333-27.733333l0-6.4c0-14.933333 12.8-27.733333 27.733333-27.733333l283.733333 0c14.933333 0 27.733333 12.8 27.733333 27.733333L403.2 691.2zM458.666667 571.733333l-362.666667 0c-17.066667 0-32-14.933333-32-32 0-17.066667 14.933333-32 32-32l362.666667 0c17.066667 0 32 14.933333 32 32C490.666667 556.8 475.733333 571.733333 458.666667 571.733333zM851.2 701.866667 851.2 701.866667c17.066667 0 32 14.933333 32 32 0 17.066667-14.933333 32-32 32l-66.133333 0 0 32 0 0c0 2.133333 0 4.266667 0 8.533333 0 21.333333-17.066667 40.533333-40.533333 40.533333-21.333333 0-40.533333-17.066667-40.533333-40.533333 0-2.133333 0-4.266667 0-8.533333l0 0L704 768l-64 0 0 0c0 0 0 0 0 0-17.066667 0-32-14.933333-32-32 0-17.066667 14.933333-32 32-32 0 0 0 0 0 0l0 0 64 0 0-32-64 0 0 0c0 0 0 0 0 0-17.066667 0-32-14.933333-32-32 0-17.066667 14.933333-32 32-32 0 0 0 0 0 0l0 0 59.733333 0c0-2.133333 2.133333-4.266667 2.133333-6.4l-72.533333-72.533333c-8.533333-8.533333-6.4-25.6 6.4-38.4 12.8-12.8 29.866667-14.933333 38.4-6.4l70.4 70.4 66.133333-70.4c10.666667-10.666667 29.866667-8.533333 42.666667 4.266667 12.8 12.8 19.2 23.466667 6.4 38.4l-76.8 76.8c0 0 0 2.133333 0 2.133333l64 0 0 0c17.066667 0 32 14.933333 32 32 0 17.066667-14.933333 32-32 32l0 0-66.133333 0 0 32L851.2 701.866667z" p-id="6081"></path></svg>