<?xml version="1.0" standalone="no"?><!DOCTYPE svg PUBLIC "-//W3C//DTD SVG 1.1//EN" "http://www.w3.org/Graphics/SVG/1.1/DTD/svg11.dtd"><svg t="1492577530326" class="icon" style="" viewBox="0 0 1024 1024" version="1.1" xmlns="http://www.w3.org/2000/svg" p-id="11091" xmlns:xlink="http://www.w3.org/1999/xlink" width="48" height="48"><defs><style type="text/css"></style></defs><path d="M563.039 266.496c-18.55 0-31.643 4.364-45.827 18.55-14.184 8.729-18.55 22.914-18.55 40.372 0 14.184 4.364 27.278 18.55 41.463 14.184 8.729 27.278 18.55 45.827 18.55s31.643-4.364 45.827-18.55c14.184-8.729 18.55-22.914 18.55-41.463 0-14.184-4.364-27.278-18.55-40.372-13.093-14.184-27.278-18.55-45.827-18.55z m18.549 445.181c-14.184 0-22.914 0-27.278-4.364s-8.729-14.184-8.729-22.914c0-4.364 0-14.184 4.364-22.914 0-8.729 4.364-18.55 4.364-22.914l27.278-90.564c4.364-8.729 4.364-18.55 4.364-27.278v-22.914c0-18.55-8.729-36.007-22.914-45.827-14.184-14.184-31.643-18.55-58.921-18.55-14.184 0-27.278 4.364-45.827 8.729-18.55 4.364-31.643 8.729-50.191 18.55l-8.729 27.278c4.364 0 8.729-4.364 18.55-4.364s14.184-4.364 22.914-4.364c14.184 0 22.914 4.364 27.278 4.364 4.364 4.364 8.729 14.184 8.729 22.914 0 4.364 0 14.184-4.364 22.914 0 8.729-4.364 18.55-4.364 22.914l-27.278 90.564c-4.364 8.729-4.364 18.55-4.364 27.278v22.914c0 18.55 8.729 31.643 22.914 45.827 14.184 14.184 31.643 18.55 58.921 18.55 18.55 0 31.643 0 45.827-4.364 14.184-4.364 27.278-8.729 50.191-18.55l8.729-27.278c-4.364 0-8.729 4.364-18.55 4.364h-22.914zM518.303 25.356C245.521 25.356 27.294 243.582 27.294 512S245.52 998.644 513.938 998.644 1004.947 780.418 1004.947 512 786.721 25.356 518.303 25.356z m0 931.825C272.799 957.181 72.031 757.504 72.031 512S272.799 66.819 518.303 66.819 963.484 266.496 963.484 512 763.807 957.181 518.303 957.181z" p-id="11092"></path></svg>