<?xml version="1.0" standalone="no"?><!DOCTYPE svg PUBLIC "-//W3C//DTD SVG 1.1//EN" "http://www.w3.org/Graphics/SVG/1.1/DTD/svg11.dtd"><svg t="1492581128384" class="icon" style="" viewBox="0 0 1024 1024" version="1.1" xmlns="http://www.w3.org/2000/svg" p-id="30617" xmlns:xlink="http://www.w3.org/1999/xlink" width="48" height="48"><defs><style type="text/css"></style></defs><path d="M141.545 454.943c-20.197 0-39.234-7.913-53.602-22.282-14.368-14.448-22.283-33.485-22.283-53.597v-232.24c0-20.201 7.914-39.239 22.283-53.609 14.448-14.368 33.487-22.283 53.602-22.283h232.241c20.141 0 39.162 7.927 53.558 22.321 14.395 14.317 22.322 33.34 22.322 53.571v232.241c0 20.133-7.914 39.142-22.284 53.524-14.453 14.442-33.461 22.355-53.596 22.355H141.545z m0.001-350.74c-11.365 0-22.05 4.425-30.084 12.46-8.081 8.155-12.527 18.864-12.527 30.161v232.242c0 11.366 4.423 22.049 12.456 30.079 8.163 8.083 18.868 12.531 30.155 12.531h232.241c11.362 0 22.044-4.425 30.079-12.46 8.104-8.105 12.527-18.788 12.527-30.151l0.001-232.241c0-11.327-4.45-22.013-12.528-30.092-8-8.076-18.685-12.528-30.078-12.528H141.546zM620.412 454.943c-20.199 0-39.237-7.913-53.605-22.282-14.367-14.448-22.282-33.485-22.282-53.597v-232.24c0-20.202 7.913-39.24 22.282-53.609 14.448-14.368 33.488-22.283 53.605-22.283h232.24c20.144 0 39.167 7.927 53.566 22.321 14.395 14.318 22.32 33.342 22.32 53.571v232.241c0 20.141-7.927 39.161-22.32 53.557-14.317 14.395-33.339 22.322-53.566 22.322h-232.24z m0-350.74c-11.367 0-22.052 4.425-30.087 12.46-8.08 8.156-12.526 18.864-12.526 30.161v232.241c0 11.365 4.423 22.048 12.456 30.08 8.163 8.082 18.869 12.528 30.157 12.528h232.24c11.321 0 22.006-4.45 30.085-12.528 8.076-7.998 12.528-18.684 12.528-30.08V146.824c0-11.327-4.45-22.013-12.528-30.092-8-8.076-18.688-12.528-30.085-12.528h-232.24zM141.543 951.562c-20.143 0-39.165-7.928-53.563-22.324-14.395-14.318-22.32-33.339-22.32-53.564V643.433c0-20.134 7.914-39.146 22.284-53.535 14.454-14.436 33.465-22.35 53.601-22.35h232.241c20.144 0 39.165 7.927 53.557 22.322 14.395 14.317 22.321 33.338 22.321 53.563v232.242c0 20.194-7.914 39.231-22.283 53.605-14.448 14.368-33.485 22.283-53.596 22.283H141.543z m0.002-350.744c-11.367 0-22.051 4.424-30.084 12.458-8.104 8.103-12.527 18.788-12.527 30.156v232.241c0 11.324 4.449 22.009 12.527 30.086 7.999 8.076 18.686 12.528 30.084 12.528h232.241c11.362 0 22.044-4.424 30.079-12.458 8.081-8.157 12.527-18.865 12.527-30.156V643.431c0-11.321-4.449-22.006-12.527-30.083-7.999-8.078-18.684-12.53-30.079-12.53H141.545zM736.527 953.068c-51.617 0-100.184-20.131-136.757-56.686-36.623-36.64-56.754-85.207-56.754-136.824 0-51.681 20.131-100.274 56.683-136.828 36.647-36.552 85.241-56.683 136.827-56.683 51.618 0 100.198 20.145 136.786 56.725 36.579 36.495 56.723 85.073 56.723 136.786 0 38.936-11.552 76.496-33.406 108.619l-1.283 1.886 55.646 37.226c7.593 5.079 9.633 15.396 4.549 22.997a16.56 16.56 0 0 1-13.789 7.352h-0.001c-3.283 0-6.468-0.969-9.208-2.802l-58.549-39.173-1.313 1.304c-36.45 36.178-84.805 56.101-136.154 56.101z m0-353.75c-42.828 0-83.08 16.656-113.341 46.898-30.245 30.313-46.899 70.564-46.899 113.341 0 42.826 16.656 83.077 46.898 113.338 30.261 30.245 70.513 46.9 113.343 46.9 42.808 0 83.048-16.667 113.307-46.931 30.264-30.214 46.932-70.453 46.932-113.307 0-42.79-16.667-83.045-46.931-113.348-30.195-30.237-70.435-46.891-113.309-46.891z" p-id="30618"></path></svg>