<?xml version="1.0" standalone="no"?><!DOCTYPE svg PUBLIC "-//W3C//DTD SVG 1.1//EN" "http://www.w3.org/Graphics/SVG/1.1/DTD/svg11.dtd"><svg t="1492581137289" class="icon" style="" viewBox="0 0 1047 1024" version="1.1" xmlns="http://www.w3.org/2000/svg" p-id="30741" xmlns:xlink="http://www.w3.org/1999/xlink" width="49.078125" height="48"><defs><style type="text/css"></style></defs><path d="M362.253881 38.822798 162.758656 38.822798c-54.995627 0-99.745792 44.742884-99.745792 99.745792l0 199.495225c0 54.991986 44.742884 99.745792 99.745792 99.745792l199.495225 0c54.991986 0 99.745792-44.750165 99.745792-99.745792L461.999673 138.56859C462.003314 83.565682 417.253148 38.822798 362.253881 38.822798z" p-id="30742"></path><path d="M362.253881 555.282887 162.758656 555.282887c-54.995627 0-99.745792 44.742884-99.745792 99.745792l0 199.491584c0 54.991986 44.742884 99.745792 99.745792 99.745792l199.495225 0c54.991986 0 99.745792-44.742884 99.745792-99.745792l0-199.491584C462.003314 600.025771 417.253148 555.282887 362.253881 555.282887z" p-id="30743"></path><path d="M675.577856 438.690702l199.491584 0c54.991986 0 99.745792-44.746524 99.745792-99.745792L974.815232 139.449685c0-54.991986-44.746524-99.745792-99.745792-99.745792l-199.491584 0c-55.002908 0-99.745792 44.742884-99.745792 99.745792l0 199.491584C575.824782 393.944178 620.571307 438.690702 675.577856 438.690702z" p-id="30744"></path><path d="M1012.097934 944.541241l-74.230443-74.234084c23.257998-32.618724 36.940459-72.511943 36.940459-115.521764 0-110.005817-89.493049-199.495225-199.495225-199.495225s-199.495225 89.489408-199.495225 199.495225c0 110.009458 89.493049 199.487943 199.495225 199.487943 43.024384 0 82.906681-13.693383 115.529045-36.940459l74.226802 74.230443c12.932437 12.972487 34.086002 12.972487 47.018439 0C1025.019449 978.623602 1025.019449 957.462756 1012.097934 944.541241zM775.316366 721.533156c-18.331876 0-33.252238 14.942208-33.252238 33.252238 0 18.361003-14.887595 33.29957-33.252238 33.29957-18.357362 0-33.252238-14.905799-33.252238-33.29957 0-54.991986 44.742884-99.745792 99.745792-99.745792 18.361003 0 33.252238 14.894876 33.252238 33.248597C808.575886 706.649202 793.673728 721.533156 775.316366 721.533156z" p-id="30745"></path></svg>