<?xml version="1.0" standalone="no"?><!DOCTYPE svg PUBLIC "-//W3C//DTD SVG 1.1//EN" "http://www.w3.org/Graphics/SVG/1.1/DTD/svg11.dtd"><svg t="1492577097503" class="icon" style="" viewBox="0 0 1024 1024" version="1.1" xmlns="http://www.w3.org/2000/svg" p-id="9191" xmlns:xlink="http://www.w3.org/1999/xlink" width="48" height="48"><defs><style type="text/css"></style></defs><path d="M1021.907 853.934c0 103.467-256.684 157.595-510.243 157.595-253.548 0-510.224-54.128-510.224-157.595 0-91.81 197.72-130.077 282.733-142.268 12.619-1.764 24.357 6.969 26.166 19.609 1.818 12.633-6.964 24.35-19.611 26.164-177.054 25.391-243.043 72.665-243.043 96.5 0 45.407 180.75 111.346 463.981 111.346 283.249 0 463.996-65.939 463.996-111.346 0-24.020-66.621-71.552-245.4-96.828-12.643-1.789-21.453-13.498-19.663-26.131 1.796-12.643 13.536-21.363 26.128-19.663 85.749 12.133 285.178 50.3 285.178 142.624zM413.835 304.646c0-53.948 43.877-97.835 97.815-97.835 53.96 0 97.862 43.889 97.862 97.835 0 53.946-43.904 97.834-97.862 97.834-53.939-0.001-97.815-43.89-97.815-97.834zM655.764 304.646c0-79.451-64.644-144.082-144.108-144.082-79.439 0-144.061 64.634-144.061 144.082 0 79.446 64.623 144.083 144.061 144.083 79.464-0.001 144.108-64.639 144.108-144.083zM511.664 56.244c142.293 0 258.048 115.753 258.048 258.028 0 197.142-199.853 418.638-258.239 479.127-58.546-59.397-257.831-276.474-257.831-479.127 0-142.274 115.747-258.028 258.021-258.028zM495.876 842.955l15.986 14.931 15.797-15.127c11.767-11.277 288.296-278.984 288.296-528.48 0-167.78-136.502-304.275-304.292-304.275-167.773 0-304.265 136.494-304.265 304.275 0.001 256.224 276.701 517.669 288.479 528.681z" p-id="9192"></path></svg>