<?xml version="1.0" standalone="no"?><!DOCTYPE svg PUBLIC "-//W3C//DTD SVG 1.1//EN" "http://www.w3.org/Graphics/SVG/1.1/DTD/svg11.dtd"><svg t="1496401883309" class="icon" style="" viewBox="0 0 1024 1024" version="1.1" xmlns="http://www.w3.org/2000/svg" p-id="2933" xmlns:xlink="http://www.w3.org/1999/xlink" width="48" height="48"><defs><style type="text/css"></style></defs><path d="M231.847927 63.828724c-92.628654 0-167.902034 75.274404-167.902034 167.902034l0 559.666626c0 92.65219 75.274404 167.896918 167.902034 167.896918l447.730231 0c92.653213 0 167.902034-75.244728 167.902034-167.896918L847.480192 483.578694l-55.965639 55.965639 0 251.853052c0 61.841463-50.090838 111.931279-111.936395 111.931279L231.847927 903.328663c-61.84658 0-111.936395-50.089815-111.936395-111.931279L119.911532 231.730759c0-61.84658 50.089815-111.936395 111.936395-111.936395l363.779214 0 55.970756-55.965639L231.847927 63.828724 231.847927 63.828724zM231.847927 63.828724" p-id="2934"></path><path d="M763.529175 63.828724 332.588329 494.770594l-78.357626 235.063667 39.181371 39.176254 235.059574-78.353532 430.940846-430.945963L763.529175 63.828724 763.529175 63.828724zM763.529175 142.182256l117.529787 117.528763L489.293347 651.481751l-169.860642 65.196885-12.870122-12.869099 65.202001-169.862689L763.529175 142.182256 763.529175 142.182256zM763.529175 142.182256" p-id="2935"></path></svg>