<?xml version="1.0" encoding="utf-8"?>
<!-- Generator: Adobe Illustrator 19.0.0, SVG Export Plug-In . SVG Version: 6.00 Build 0)  -->
<svg version="1.1" id="图层_1" xmlns="http://www.w3.org/2000/svg" xmlns:xlink="http://www.w3.org/1999/xlink" x="0px" y="0px"
	 viewBox="0 0 200 200" style="enable-background:new 0 0 200 200;" xml:space="preserve">
<polygon id="XMLID_9_" points="189,182 0,182 0,18 189,18 189,55 185,55 185,22 4,22 4,178 185,178 185,144 189,144 "/>
<path id="XMLID_2_" d="M121,109.7c-5.9,0-10.7-4.8-10.7-10.7c0-5.9,4.8-10.7,10.7-10.7s10.7,4.8,10.7,10.7
	C131.7,104.9,126.9,109.7,121,109.7z M121,92.3c-3.7,0-6.7,3-6.7,6.7s3,6.7,6.7,6.7s6.7-3,6.7-6.7S124.7,92.3,121,92.3z"/>
<path id="XMLID_3_" d="M202,135H90.3V62H202V135z M94.3,131H198V66H94.3V131z"/>
</svg>
