<?xml version="1.0" encoding="utf-8"?>
<!-- Generator: Adobe Illustrator 19.0.0, SVG Export Plug-In . SVG Version: 6.00 Build 0)  -->
<svg version="1.1" id="图层_1" xmlns="http://www.w3.org/2000/svg" xmlns:xlink="http://www.w3.org/1999/xlink" x="0px" y="0px"
	 viewBox="0 0 200 200" style="enable-background:new 0 0 200 200;" xml:space="preserve">
<path id="XMLID_3_" d="M126,103h-3.4l-22.3-21.7l-21,21.7H73V1h53V103z M77,5v92.6l22.2-23L122,96.8V5H77z"/>
<rect id="XMLID_4_" x="10" y="50" width="66" height="4"/>
<rect id="XMLID_5_" x="125" y="50" width="67" height="4"/>
<path id="XMLID_6_" d="M52,73H34c-1.1,0-2-0.9-2-2l0,0c0-1.1,0.9-2,2-2h18c1.1,0,2,0.9,2,2l0,0C54,72.1,53.1,73,52,73z"/>
<path id="XMLID_7_" d="M186,198.4H16c-4.4,0-8-3.6-8-8V8.5c0-4.4,3.6-8,8-8h170c4.4,0,8,3.6,8,8v181.9
	C194,194.8,190.4,198.4,186,198.4z M16,4.5c-2.2,0-4,1.8-4,4v181.9c0,2.2,1.8,4,4,4h170c2.2,0,4-1.8,4-4V8.5c0-2.2-1.8-4-4-4H16z"/>
</svg>
