<?xml version="1.0" encoding="utf-8"?>
<!-- Generator: Adobe Illustrator 19.0.0, SVG Export Plug-In . SVG Version: 6.00 Build 0)  -->
<svg version="1.1" id="图层_1" xmlns="http://www.w3.org/2000/svg" xmlns:xlink="http://www.w3.org/1999/xlink" x="0px" y="0px"
	 viewBox="0 0 200 200" style="enable-background:new 0 0 200 200;" xml:space="preserve">
<path id="XMLID_8_" d="M6,177H2V17.9C2,10.5,9.8,4,18.6,4H102v23h27v4H98V8H18.6C12,8,6,12.7,6,17.9V177z"/>
<rect id="XMLID_9_" x="114.7" y="59.2" transform="matrix(0.7201 0.6939 -0.6939 0.7201 87.7145 -95.1184)" width="94" height="4"/>
<rect id="XMLID_12_" x="192.8" y="92.4" transform="matrix(1 6.347528e-003 -6.347528e-003 1 0.86 -1.2335)" width="4" height="84.8"/>
<rect id="XMLID_13_" x="98" y="42" width="4" height="69"/>
<rect id="XMLID_16_" x="100" y="107" width="72" height="4"/>
<rect id="XMLID_2_" x="57" y="175" width="84" height="4"/>
<path id="XMLID_3_" d="M162,197.7c-12.2,0-22.1-9.9-22.1-22.1s9.9-22.1,22.1-22.1s22.1,9.9,22.1,22.1S174.2,197.7,162,197.7z
	 M162,157.5c-10,0-18.1,8.1-18.1,18.1s8.1,18.1,18.1,18.1s18.1-8.1,18.1-18.1S172,157.5,162,157.5z"/>
<path id="XMLID_4_" d="M37.7,197.7c-12.2,0-22.1-9.9-22.1-22.1s9.9-22.1,22.1-22.1s22.1,9.9,22.1,22.1S49.9,197.7,37.7,197.7z
	 M37.7,157.5c-10,0-18.1,8.1-18.1,18.1s8.1,18.1,18.1,18.1s18.1-8.1,18.1-18.1S47.7,157.5,37.7,157.5z"/>
</svg>
