<?xml version="1.0" encoding="utf-8"?>
<!-- Generator: Adobe Illustrator 19.0.0, SVG Export Plug-In . SVG Version: 6.00 Build 0)  -->
<svg version="1.1" id="图层_1" xmlns="http://www.w3.org/2000/svg" xmlns:xlink="http://www.w3.org/1999/xlink" x="0px" y="0px"
	 viewBox="0 0 200 200" style="enable-background:new 0 0 200 200;" xml:space="preserve">
<path id="XMLID_3_" d="M85.7,154.4c-4.2,0-7.9-2.3-9.8-6.1l-15.1-30.5c-1-2-2.9-3.4-5.2-3.8l-33.7-4.9c-4.1-0.6-7.5-3.4-8.8-7.4
	c-1.3-4-0.2-8.2,2.8-11.1l24.4-23.7c1.6-1.6,2.4-3.9,2-6.1l-5.8-33.5c-0.7-4.1,1-8.2,4.3-10.6c3.4-2.5,7.8-2.8,11.5-0.8l30.1,15.8
	c2,1.1,4.4,1.1,6.4,0v0L119,15.8c3.7-1.9,8.1-1.6,11.5,0.8c3.4,2.5,5,6.5,4.3,10.6l-5.8,33.5c-0.4,2.2,0.4,4.5,2,6.1l24.4,23.7
	c3,2.9,4,7.2,2.8,11.1c-1.3,4-4.7,6.8-8.8,7.4l-33.7,4.9c-2.2,0.3-4.2,1.7-5.2,3.8l-15.1,30.5C93.6,152,89.9,154.4,85.7,154.4z
	 M47.3,18.5c-1.4,0-2.8,0.4-4,1.3c-2.2,1.6-3.2,4.1-2.7,6.7l5.8,33.5c0.6,3.5-0.6,7.1-3.1,9.6L18.8,93.5c-1.9,1.9-2.6,4.5-1.7,7
	s2.9,4.3,5.5,4.7l33.7,4.9c3.5,0.5,6.6,2.7,8.2,5.9l15.1,30.5c1.2,2.4,3.5,3.8,6.2,3.8c2.7,0,5-1.4,6.2-3.8l15.1-30.5
	c1.6-3.2,4.6-5.4,8.2-5.9l33.7-4.9c2.6-0.4,4.7-2.1,5.5-4.7c0.8-2.5,0.2-5.2-1.7-7l-24.4-23.7c-2.6-2.5-3.7-6.1-3.1-9.6l5.8-33.5
	c0.5-2.6-0.6-5.2-2.7-6.7s-4.9-1.8-7.2-0.5L90.8,35.2v0c-3.2,1.7-7,1.7-10.1,0L50.6,19.3C49.5,18.8,48.4,18.5,47.3,18.5z"/>
<path id="XMLID_4_" d="M163.8,177.3L126,139.5c-0.8-0.8-0.8-2,0-2.8l0,0c0.8-0.8,2-0.8,2.8,0l37.8,37.8c0.8,0.8,0.8,2,0,2.8l0,0
	C165.9,178.1,164.6,178.1,163.8,177.3z"/>
</svg>
