<?xml version="1.0" standalone="no"?><!DOCTYPE svg PUBLIC "-//W3C//DTD SVG 1.1//EN" "http://www.w3.org/Graphics/SVG/1.1/DTD/svg11.dtd"><svg t="1496205316343" class="icon" style="" viewBox="0 0 1024 1024" version="1.1" xmlns="http://www.w3.org/2000/svg" p-id="5362" xmlns:xlink="http://www.w3.org/1999/xlink" width="48" height="48"><defs><style type="text/css"></style></defs><path d="M901.377096 480.064117 901.377096 64.695529l-772.323729 0 0 415.368587-64.357838 0 0 421.774491c0 31.936395 25.747433 57.46484 51.495889 57.46484l791.61614 0c32.178919 0 51.495889-25.528445 51.495889-51.058937L959.303448 480.064117 901.377096 480.064117 901.377096 480.064117zM193.411205 179.725494l643.60703 0 0 300.338623-643.60703 0L193.411205 179.725494 193.411205 179.725494zM244.908117 243.647403l534.183766 0 0 57.514982L244.908117 301.162385 244.908117 243.647403 244.908117 243.647403zM244.908117 365.035175l534.183766 0 0 57.563078L244.908117 422.598253 244.908117 365.035175 244.908117 365.035175zM244.908117 365.035175" p-id="5363"></path></svg>