<?xml version="1.0" standalone="no"?><!DOCTYPE svg PUBLIC "-//W3C//DTD SVG 1.1//EN" "http://www.w3.org/Graphics/SVG/1.1/DTD/svg11.dtd"><svg t="1492577328232" class="icon" style="" viewBox="0 0 1024 1024" version="1.1" xmlns="http://www.w3.org/2000/svg" p-id="9872" xmlns:xlink="http://www.w3.org/1999/xlink" width="48" height="48"><defs><style type="text/css"></style></defs><path d="M337.311 1012.88h-51.873V894.582c-81.65-6.911-265.645-36.327-270.357-185.584l45.214-1.019c3.486 112.832 180.398 135.68 182.596 135.68l90.415 7.613v161.608h4.005zM694.764 1012.88V851.273l90.427-7.613c2.197 0 179.104-22.848 182.596-135.68l45.212 1.019c-4.711 149.256-188.715 178.673-270.351 185.584v118.297H690.77h3.993zM513.671 839.44l-38.355-20.904C205.413 671.201 68.561 499.842 68.561 309.234c0-72.958 23.568-145.742 64.682-199.688 23.079-30.299 50.935-54.167 82.795-70.924 34.713-18.287 73.179-27.556 114.324-27.556 47.104 0 91.907 9.727 133.178 28.928a311.435 311.435 0 0 1 49.327 28.739 299.006 299.006 0 0 1 48.523-28.676c40.798-19.233 85.396-28.991 132.548-28.991 166.236 0 265.584 150.976 265.584 296.939 0 191.144-137.088 362.882-407.464 510.532l-38.387 20.903zM330.362 69.582c-31.545 0-60.835 6.999-87.051 20.809-24.277 12.785-45.638 31.151-63.531 54.624-33.484 43.951-52.701 103.809-52.701 164.218 0 167.56 126.589 321.642 376.25 457.91l10.342 5.644 10.373-5.644c250.119-136.552 376.96-291.044 376.96-459.14 0-117.193-77.451-238.422-207.066-238.422-38.465 0-74.66 7.882-107.624 23.41a241.987 241.987 0 0 0-54.246 35.06l-18.791 16.08-18.98-15.875a252.774 252.774 0 0 0-55.459-35.202c-33.453-15.574-69.964-23.472-108.476-23.472z" fill="" p-id="9873"></path></svg>