<?xml version="1.0" encoding="utf-8"?>
<!-- Generator: Adobe Illustrator 19.0.0, SVG Export Plug-In . SVG Version: 6.00 Build 0)  -->
<svg version="1.1" id="图层_1" xmlns="http://www.w3.org/2000/svg" xmlns:xlink="http://www.w3.org/1999/xlink" x="0px" y="0px"
	 viewBox="0 0 200 200" style="enable-background:new 0 0 200 200;" xml:space="preserve">
<path id="XMLID_6_" d="M98.7,155.3c-42.4,0-77-34.5-77-77c0-42.4,34.5-77,77-77s77,34.5,77,77C175.7,120.8,141.2,155.3,98.7,155.3z
	 M98.7,5.3c-40.2,0-73,32.7-73,73s32.7,73,73,73c40.2,0,73-32.7,73-73S139,5.3,98.7,5.3z"/>
<path id="XMLID_3_" d="M98.7,131.7c-29.4,0-53.4-23.9-53.4-53.4c0-29.4,23.9-53.4,53.4-53.4c29.4,0,53.4,23.9,53.4,53.4
	C152.1,107.7,128.2,131.7,98.7,131.7z M98.7,28.9c-27.2,0-49.4,22.1-49.4,49.4c0,27.2,22.1,49.4,49.4,49.4s49.4-22.1,49.4-49.4
	C148.1,51.1,126,28.9,98.7,28.9z"/>
<path id="XMLID_5_" d="M39.7,198.8c-0.1,0-0.2,0-0.3,0c-1.9-0.1-3.5-1.1-4.5-2.7l-10.1-16.8l-18.9-5c-1.7-0.5-3.1-1.7-3.7-3.4
	c-0.6-1.7-0.3-3.5,0.8-5L37.1,122l3.2,2.5L6.2,168.3c-0.4,0.5-0.3,1-0.2,1.2c0.1,0.2,0.3,0.7,0.9,0.8l20.5,5.4L38.3,194
	c0.3,0.5,0.8,0.8,1.3,0.8c0.5,0,1-0.2,1.4-0.6l34.5-45.3l3.2,2.4l-34.5,45.3C43.1,198,41.4,198.8,39.7,198.8z"/>
<path id="XMLID_4_" d="M158.2,198.4c-1.7,0-3.4-0.8-4.5-2.2l-34.5-45.3l3.2-2.4l34.5,45.3c0.3,0.4,0.8,0.7,1.4,0.6
	c0.5,0,1-0.3,1.3-0.8l10.9-18.2L191,170c0.6-0.2,0.8-0.6,0.9-0.8s0.2-0.7-0.2-1.2l-34.1-43.8l3.2-2.5l34.1,43.8
	c1.1,1.4,1.4,3.3,0.8,5s-1.9,3-3.7,3.4l-18.9,5l-10.1,16.8c-1,1.6-2.6,2.6-4.5,2.7C158.4,198.4,158.3,198.4,158.2,198.4z"/>
</svg>
