<?xml version="1.0" standalone="no"?><!DOCTYPE svg PUBLIC "-//W3C//DTD SVG 1.1//EN" "http://www.w3.org/Graphics/SVG/1.1/DTD/svg11.dtd"><svg t="1492580953040" class="icon" style="" viewBox="0 0 1135 1024" version="1.1" xmlns="http://www.w3.org/2000/svg" p-id="29271" xmlns:xlink="http://www.w3.org/1999/xlink" width="53.203125" height="48"><defs><style type="text/css"></style></defs><path d="M382.061203 876.121088c-40.837337 0-73.943894 33.093243-73.943894 73.917267 0 40.850651 33.106557 73.961645 73.943894 73.961645 40.832899 0 73.935018-33.110995 73.935018-73.961645C455.996221 909.214331 422.894102 876.121088 382.061203 876.121088z" p-id="29272"></path><path d="M894.711352 876.121088c-40.832899 0-73.943894 33.093243-73.943894 73.917267 0 40.850651 33.110995 73.961645 73.943894 73.961645 40.824023 0 73.943894-33.110995 73.943894-73.961645C968.659683 909.214331 935.548689 876.121088 894.711352 876.121088z" p-id="29273"></path><path d="M1047.343229 158.272418c-20.507426-22.970447-50.489718-35.112477-86.702788-35.112477L244.75775 123.159941C238.393836 67.757494 217.518066 0 86.201308 0c-17.689375 0-32.037029 14.365405-32.037029 32.037029 0 17.69825 14.343216 32.045904 32.037029 32.045904 89.618473 0 92.139186 30.350636 96.696885 85.460183l1.038463 11.84913L256.029956 708.085342l0.239645 1.655328c15.594697 84.119944 72.13324 134.325638 151.296077 134.325638l561.076254 0c17.69825 0 32.045904-14.321027 32.045904-32.037029 0.008876-17.671623-14.33434-32.045904-32.028153-32.045904L407.552364 779.983375c-48.275218 0-77.924669-27.261874-88.122908-81.128815l-0.985209-7.455632 580.203501-30.61247 2.773673-0.310651c72.297442-11.112442 113.80046-68.960159 122.858166-121.486862l48.0622-286.371715 0.235207-1.686393C1077.942386 203.725146 1061.819581 174.479542 1047.343229 158.272418zM915.15221 491.179704c-0.337279 2.343199-1.353552 9.488179-10.642027 31.868389-2.565092 6.16421-8.529598 9.874275-14.804755 9.874275-2.045861 0-4.136101-0.399409-6.146459-1.229292-8.165692-3.399413-12.048834-12.76777-8.658297-20.946776 7.531076-18.106535 8.458592-23.542933 8.529598-24.106544 1.247043-8.75593 9.359481-14.831382 18.133162-13.593215C910.3238 474.293585 916.408129 482.406022 915.15221 491.179704zM945.862313 309.337725l-17.480794 103.753108c-1.326925 7.819538-8.103562 13.349132-15.794402 13.349132-0.874262 0-1.77515-0.071006-2.680477-0.226332-8.720427-1.464499-14.605051-9.741138-13.140552-18.461565l17.369848-102.887723c1.335801-11.840254-0.763315-21.452694-6.346163-27.692348-7.264803-8.121314-19.735236-9.829896-28.934953-9.829896l-102.461686 0c-8.858001 0-16.016295-7.16717-16.016295-16.025171 0-8.831374 7.158294-16.00742 16.016295-16.00742l102.461686 0c22.579914 0 40.832899 7.100602 52.837354 20.525178C939.888932 265.012217 948.999892 281.743011 945.862313 309.337725z" p-id="29274"></path></svg>