<?xml version="1.0" standalone="no"?><!DOCTYPE svg PUBLIC "-//W3C//DTD SVG 1.1//EN" "http://www.w3.org/Graphics/SVG/1.1/DTD/svg11.dtd"><svg t="1492580978132" class="icon" style="" viewBox="0 0 1135 1024" version="1.1" xmlns="http://www.w3.org/2000/svg" p-id="29948" xmlns:xlink="http://www.w3.org/1999/xlink" width="53.203125" height="48"><defs><style type="text/css"></style></defs><path d="M967.991124 779.998821 406.881458 779.998821c-48.275952 0-77.924554-27.260592-88.12669-81.131683l-71.826676-544.558283-0.85379-10.050447C241.316483 86.817003 234.156785-0.000832 85.523715-0.000832c-17.691214 0-32.036613 14.367069-32.036613 32.036613 0 17.699882 14.345399 32.045281 32.036613 32.045281 89.621906 0 92.139935 30.350704 96.699258 85.461306l1.04015 11.84904 72.091048 546.707926 0.238368 1.655572c15.593579 84.122114 72.134387 134.326676 151.298454 134.326676l561.083663 0c17.699882 0 32.045281-14.319395 32.045281-32.036613C1000.027737 794.370224 985.682338 779.998821 967.991124 779.998821zM1046.687123 158.275293c-20.516954-22.969974-50.499272-35.113723-86.71382-35.113723L343.181818 123.16157c-17.691214 0-32.045281 14.345399-32.045281 32.045281 0 17.68688 14.354067 32.040947 32.045281 32.040947l616.801019 0c12.169752 0 28.777477 2.375009 38.884266 13.695305 10.236807 11.458983 10.860897 28.994175 9.465363 41.974378l-47.89023 285.332154c-3.796547 22.007836-22.432564 61.013453-68.147147 68.693225l-471.110707 30.92712c-17.656543 1.152833-31.039803 16.425699-29.878302 34.073573 1.118161 16.945774 15.212191 29.93031 31.949934 29.93031 0.693433 0 1.41287-0.017336 2.123639-0.04334l472.601588-31.031135 2.773733-0.312045c72.299078-11.112267 113.801054-68.961931 122.859025-121.489494l48.063588-286.376638 0.234034-1.685909C1077.284862 203.724638 1061.153873 174.47996 1046.687123 158.275293zM900.901463 473.054088c-8.77193-1.239512-16.885098 4.836696-18.133278 13.59129-0.069343 0.563414-0.99681 5.998197-8.529228 24.105471-3.389155 8.180778 0.494071 17.550794 8.659247 20.94775 2.010956 0.83212 4.091256 1.230844 6.145552 1.230844 6.27557 0 12.239096-3.709868 14.804799-9.872755 9.292005-22.383157 10.306151-29.525518 10.644199-31.869323C915.740933 482.415436 909.656057 474.302268 900.901463 473.054088zM927.711324 413.098121l17.483184-103.754941c3.137785-27.598641-5.972193-44.327717-14.163373-53.507038-12.005062-13.4266-30.259691-20.525622-52.839609-20.525622l-102.463421 0c-8.849941 0-16.018307 7.177033-16.018307 16.009639 0 8.858609 7.168366 16.026975 16.018307 16.026975l102.463421 0c9.196658 0 21.669787 1.707579 28.9335 9.829415 5.582137 6.240899 7.679773 15.853616 6.344914 27.693988l-17.370501 102.888149c-1.464878 8.719922 4.420637 16.997781 13.140559 18.462659 0.901463 0.156022 1.802926 0.225366 2.678386 0.225366C919.606823 426.44671 926.385133 420.91658 927.711324 413.098121zM381.38912 876.134665c-40.838881 0-73.945982 33.094099-73.945982 73.919978 0 40.851883 33.107101 73.963317 73.945982 73.963317 40.834547 0 73.937314-33.111435 73.937314-73.963317C455.326434 909.228764 422.223667 876.134665 381.38912 876.134665zM894.045143 876.134665c-40.834547 0-73.945982 33.094099-73.945982 73.919978 0 40.851883 33.111435 73.963317 73.945982 73.963317 40.825879 0 73.945982-33.111435 73.945982-73.963317C967.991124 909.228764 934.879689 876.134665 894.045143 876.134665z" p-id="29949"></path></svg>