<?xml version="1.0" standalone="no"?><!DOCTYPE svg PUBLIC "-//W3C//DTD SVG 1.1//EN" "http://www.w3.org/Graphics/SVG/1.1/DTD/svg11.dtd"><svg t="1492576889112" class="icon" style="" viewBox="0 0 1024 1024" version="1.1" xmlns="http://www.w3.org/2000/svg" p-id="8525" xmlns:xlink="http://www.w3.org/1999/xlink" width="48" height="48"><defs><style type="text/css"></style></defs><path d="M884.224 986.624c-3.072 0-6.144-1.024-8.192-3.072l-327.68-327.68-319.488 318.976c-2.56 2.56-5.12 3.584-8.192 3.584-3.072 0-5.632-1.024-7.68-3.584L102.4 865.28c-4.096-4.096-4.096-12.288 0.512-16.896l319.488-318.976-164.864-164.864-19.968 11.776c-4.096 2.048-8.704 4.096-12.8 5.632l-4.608 2.048-3.072 5.632c-2.048 3.584-3.584 6.656-5.12 9.728l-0.512 1.024-0.512 1.024c-2.56 8.192-3.072 15.36-2.56 23.04 0.512 4.096-0.512 7.168-3.072 9.728l-53.76 53.76c-2.048 2.048-5.12 3.072-8.192 3.072-3.072 0-6.144-1.024-8.704-3.584l-62.464-62.464v-3.072l-5.12-3.072-62.976-63.488c-2.56-2.048-3.584-5.12-3.584-7.68 0-3.072 1.024-6.144 3.584-8.704l53.248-53.76c2.048-2.048 4.608-3.072 7.68-3.072h8.704c8.192 0 15.36-1.024 20.992-2.56 5.12-1.024 9.216-3.072 12.8-5.12l3.072-2.048 1.536-3.584c2.56-6.144 5.632-11.264 8.192-16.896l0.512-1.024 9.216-14.848-20.992-19.456c-2.048-2.048-3.072-5.12-3.072-8.192 0-3.072 1.024-5.632 3.072-7.68l110.08-110.592c2.048-2.048 5.12-3.072 8.192-3.072 3.072 0 6.144 1.024 8.192 3.072l21.504 20.48 8.704-6.144c3.584-2.56 8.192-4.608 11.776-6.656 8.704-4.096 16.384-7.68 24.576-10.752l2.56-1.024 2.048-1.536c30.72-26.624 64-40.448 98.816-40.448 3.072 0 6.144 0 9.216 0.512 38.4 2.56 78.336 22.016 114.688 56.832 4.608 4.608 4.608 12.288 0 16.896-2.048 2.048-4.608 3.072-7.168 3.072H519.168c-5.12-0.512-10.24-0.512-15.36-0.512-19.456 0-35.84 3.072-49.664 9.728-15.36 6.656-28.16 18.944-38.912 37.376l-1.024 1.536-0.512 1.536c-2.56 9.728-6.144 22.528-12.288 35.84l-0.512 1.536-3.072 6.144c-2.56 5.12-5.12 10.24-8.192 15.36l-5.12 8.704 164.864 164.352 67.072-67.072-4.096-8.704-0.512-1.536c-14.336-54.784-6.144-114.688 22.528-163.84 28.672-50.688 75.776-86.528 131.584-100.864 17.92-5.12 36.864-7.68 55.296-7.68 14.848 0 29.696 1.536 45.056 4.608 32.768 6.144 64 20.992 90.624 42.496l0.512 0.512c2.56 1.536 3.584 3.584 3.584 4.608v1.024c1.536 6.144-2.048 12.8-8.192 14.848l-128.512 33.792-16.384 61.952-16.384 61.44 45.056 45.568 45.568 45.568 60.928-16.896 67.072-17.92h2.56c1.536 0 3.072 0.512 4.096 1.024l0.512 0.512c2.56 1.024 4.608 3.072 5.632 5.632 1.536 3.072 1.536 6.656 0.512 9.216-12.8 32.768-32.768 60.928-57.344 82.432-25.6 22.528-56.32 39.424-88.576 48.128-18.432 4.608-37.888 7.168-57.856 7.168-6.144 0-12.8 0-18.944-0.512-20.992-2.048-40.448-6.656-57.344-13.824l-8.192-3.584-60.416 59.904 327.68 328.192c2.56 2.56 4.096 5.12 4.096 8.704 0 3.072-1.536 6.144-3.584 8.192l-109.568 110.08c-2.56-0.512-5.632 0.512-9.216 0.512z m-319.488-347.648l320 320 93.184-93.184-319.488-320-93.696 93.184z m71.168-310.784l3.072 8.704c1.536 3.584 0.512 8.192-2.56 11.264l-508.928 508.928 93.184 93.184 502.784-502.784c2.048-2.048 5.12-3.072 8.192-3.072 2.048 0 4.096 0.512 6.144 1.536 20.992 9.728 43.52 15.872 65.536 18.432 5.632 0.512 11.264 0.512 16.384 0.512 17.92 0 35.328-2.048 52.224-6.656 29.696-8.192 56.832-22.528 78.848-41.984 7.68-7.168 14.336-14.336 20.48-21.504l27.648-32.768-49.152 13.824-68.608 17.92c-1.024 0.512-2.048 0.512-3.072 0.512-3.072 0-6.144-1.536-8.192-3.584l-0.512-0.512-48.64-48.64-50.688-50.176c-2.56-2.56-3.584-7.168-2.56-10.752l35.84-136.192c1.024-4.096 4.096-7.168 8.192-8.192l68.096-18.944 54.272-12.8-45.568-14.848c-7.68-2.56-16.384-5.12-26.624-7.68h-1.024c-12.8-2.56-26.112-4.096-38.912-4.096-16.896 0-33.792 2.048-50.688 6.144-50.176 13.312-92.16 45.568-117.76 90.624-25.6 44.544-32.768 96.256-19.968 146.944l0.512 1.536 0.512 1.536 1.536 3.584z m-377.344 10.24c3.072 0 6.144 1.024 8.192 3.584l171.008 171.008 93.696-93.184-171.52-171.008c-4.096-4.096-4.608-10.24-1.536-14.848 7.68-11.264 14.848-23.04 19.968-35.328l0.512-2.048c4.608-10.24 9.216-22.016 11.264-33.792 0-0.512 1.024-2.56 1.536-4.096 13.312-23.552 30.208-40.448 51.2-50.176 2.56-1.536 5.12-2.048 7.68-3.072 1.536-0.512 3.072-1.024 4.608-2.048l29.696-12.288-29.696-12.288c-16.384-6.656-29.696-10.24-44.032-11.264h-6.656c-30.72 0-60.928 12.8-87.04 37.376-2.048 1.536-3.584 2.56-5.12 3.072-8.704 2.56-17.408 6.656-25.6 10.24-9.216 5.12-18.432 10.24-27.648 16.384-2.048 1.536-4.096 2.048-6.656 2.048-3.072 0-6.144-1.024-8.704-3.584l-18.432-17.92-92.672 92.672 16.896 17.408 0.512 0.512c4.608 4.096 5.632 9.728 2.048 14.848-3.072 5.12-6.144 9.728-8.704 13.824l-3.584 6.144-1.024 1.536c-0.512 1.536-1.536 3.072-2.048 4.096-2.56 5.12-5.12 10.24-7.168 15.872-0.512 1.536-2.048 3.584-3.584 5.12-7.68 6.656-16.896 11.776-28.16 14.848-7.168 2.048-14.848 3.072-24.576 3.072h-5.632l-42.496 41.984 53.76 53.76 2.56 3.584 0.512 1.024 0.512 0.512 1.024 1.024h1.536l0.512 0.512 55.808 54.784 42.496-41.472v-5.632c0-8.192 1.024-15.36 4.096-22.528 3.072-9.216 7.68-17.408 14.336-25.088 2.56-2.56 3.584-3.584 5.632-4.608 5.632-2.048 11.776-5.12 17.92-8.704l3.072-1.536c6.656-3.072 12.8-7.168 19.968-11.776 4.608-1.536 7.168-2.56 9.728-2.56z" p-id="8526"></path></svg>