<?xml version="1.0" standalone="no"?><!DOCTYPE svg PUBLIC "-//W3C//DTD SVG 1.1//EN" "http://www.w3.org/Graphics/SVG/1.1/DTD/svg11.dtd"><svg t="1492581463916" class="icon" style="" viewBox="0 0 1024 1024" version="1.1" xmlns="http://www.w3.org/2000/svg" p-id="35355" xmlns:xlink="http://www.w3.org/1999/xlink" width="48" height="48"><defs><style type="text/css"></style></defs><path d="M931.6 451.7L591.7 98.2c-21.3-22-49.5-34.1-79.7-34.1-30.3 0-58.5 12.1-79.7 34.1L92.4 451.7c-35 36.5-30.7 68-24.7 81.2 4.1 9.4 18.2 35 58.2 35h49.8V840c0 61.8 44.4 119.9 107.5 119.9h144.6v-288c0-30.9-4.7-48.1 26.8-48.1h114.6c31.6 0 26.9 17.3 26.9 48.1v287.9h144.5c63 0 107.5-58.1 107.5-119.9V567.8H898c40.2 0 54.1-25.7 58.2-35 6-13.2 10.5-44.7-24.6-81.1z" fill="" p-id="35356"></path></svg>