<?xml version="1.0" standalone="no"?><!DOCTYPE svg PUBLIC "-//W3C//DTD SVG 1.1//EN" "http://www.w3.org/Graphics/SVG/1.1/DTD/svg11.dtd"><svg t="1492581451470" class="icon" style="" viewBox="0 0 1024 1024" version="1.1" xmlns="http://www.w3.org/2000/svg" p-id="35231" xmlns:xlink="http://www.w3.org/1999/xlink" width="48" height="48"><defs><style type="text/css"></style></defs><path d="M169.1136 556.416l0 381.8752c0 21.5552 17.5616 39.0656 39.1168 39.0656l198.0672 0c21.5808 0 39.1168-17.536 39.1168-39.0656L445.4144 658.2784l130.6112 0 0 280.0128c0 21.5552 17.5616 39.0656 39.1168 39.0656l198.0672 0c21.5552 0 39.0912-17.536 39.0912-39.0656L852.3008 556.416l81.7664 0c21.5808 0 39.1168-17.5616 39.1168-38.6304 0.2816-11.3152-4.4544-22.1952-12.16-29.0048L537.984 65.664c-14.72-14.6688-40.448-14.7712-55.3216 0.0256L58.7776 489.6c-11.1616 11.1616-14.4896 27.8784-8.4992 42.6496 6.0416 14.6688 20.2496 24.1664 36.1472 24.1664L169.1136 556.416zM510.848 92.8512l423.2192 425.1648-120.1152 0 0 420.2752c0 0.3328-0.256 0.6656-0.6912 0.6656l-198.8096-0.6656L614.4512 619.8784 407.04 619.8784l-0.7168 319.104-198.8096-0.6656L207.5136 518.016l-121.6-1.28L510.848 92.8512z" p-id="35232"></path></svg>